<?xml version="1.0" standalone="no"?>
<!DOCTYPE svg PUBLIC "-//W3C//DTD SVG 20010904//EN"
 "http://www.w3.org/TR/2001/REC-SVG-20010904/DTD/svg10.dtd">
<svg version="1.0" xmlns="http://www.w3.org/2000/svg"
 width="676.000000pt" height="676.000000pt" viewBox="0 0 676.000000 676.000000"
 preserveAspectRatio="xMidYMid meet">
<metadata>
Created by potrace 1.11, written by Peter Selinger 2001-2013
</metadata>
<g transform="translate(0.000000,676.000000) scale(0.100000,-0.100000)"
fill="#000000" stroke="none">
<path d="M3247 6749 c-118 -19 -255 -75 -394 -162 -21 -13 -45 -27 -53 -31 -8
-4 -31 -17 -51 -29 -20 -12 -61 -36 -90 -53 -30 -17 -94 -54 -142 -82 -49 -29
-93 -52 -98 -52 -5 0 -9 -4 -9 -10 0 -5 -4 -10 -9 -10 -8 0 -46 -21 -149 -83
-26 -15 -58 -33 -72 -40 -14 -6 -29 -15 -35 -20 -23 -19 -526 -307 -535 -307
-5 0 -10 -3 -10 -7 0 -5 -10 -13 -23 -19 -18 -9 -210 -120 -364 -210 -123 -73
-197 -114 -204 -114 -5 0 -9 -4 -9 -8 0 -5 -16 -14 -35 -22 -19 -8 -35 -17
-35 -20 0 -4 -22 -17 -50 -30 -27 -13 -50 -27 -50 -32 0 -4 -5 -8 -11 -8 -14
0 -189 -103 -246 -146 -143 -107 -261 -292 -300 -474 -4 -19 -8 -658 -8 -1420
0 -1318 1 -1388 19 -1455 43 -165 129 -299 267 -421 32 -28 145 -98 274 -169
60 -33 393 -221 485 -275 36 -20 85 -49 110 -62 25 -14 110 -63 190 -108 80
-45 165 -94 190 -108 68 -38 386 -219 460 -262 36 -21 68 -37 71 -36 4 0 15
-6 25 -15 11 -9 51 -33 89 -54 39 -21 87 -49 107 -62 21 -12 40 -23 43 -23 2
0 39 -20 81 -45 41 -25 77 -45 78 -45 5 0 171 -96 203 -117 15 -10 28 -17 30
-16 1 1 24 -7 50 -18 164 -70 398 -86 578 -39 60 16 65 18 145 52 56 24 384
210 388 220 2 5 8 8 13 8 9 0 259 139 269 150 3 3 23 14 45 25 22 11 42 23 45
26 3 3 10 8 16 10 8 3 583 332 664 380 8 5 56 31 105 59 50 28 97 55 105 60
48 28 498 285 515 294 11 6 22 13 25 16 4 4 29 18 115 64 11 6 22 13 25 16 3
3 28 21 55 40 60 41 150 131 190 192 17 23 36 49 42 56 7 7 16 24 19 38 3 13
10 24 15 24 5 0 9 8 9 18 0 10 4 22 9 27 11 12 48 122 57 167 3 18 9 44 11 58
3 14 7 642 10 1395 4 1339 3 1372 -16 1447 -29 111 -87 216 -156 281 -33 31
-119 95 -150 113 -39 21 -533 309 -700 407 -93 55 -186 109 -205 120 -36 20
-301 174 -380 221 -25 15 -53 29 -62 33 -10 3 -18 9 -18 14 0 5 -5 9 -10 9 -6
0 -52 25 -102 55 -50 30 -92 55 -94 55 -2 0 -44 25 -94 55 -50 30 -93 55 -95
55 -2 0 -49 27 -103 60 -55 33 -105 60 -111 60 -6 0 -11 5 -11 10 0 6 -6 10
-14 10 -7 0 -19 7 -26 15 -7 9 -15 13 -18 10 -3 -3 -12 1 -21 9 -16 13 -229
138 -331 194 -53 29 -183 75 -245 88 -49 9 -246 12 -298 3z m263 -271 c19 -6
89 -42 155 -81 66 -38 139 -80 162 -93 23 -13 108 -62 188 -109 81 -47 151
-85 156 -85 5 0 9 -4 9 -10 0 -5 4 -10 10 -10 5 0 82 -43 171 -95 89 -52 163
-95 166 -95 2 0 22 -11 44 -26 22 -14 56 -34 75 -45 33 -19 71 -40 137 -78 17
-10 56 -32 85 -50 29 -17 57 -31 62 -31 6 0 10 -4 10 -10 0 -5 4 -10 9 -10 8
0 98 -52 456 -261 55 -32 108 -61 118 -65 9 -3 17 -13 17 -21 0 -8 4 -12 9 -8
12 7 75 -25 163 -82 156 -102 226 -218 182 -305 -17 -33 -43 -49 -271 -169
-65 -34 -135 -73 -155 -86 -21 -13 -38 -20 -38 -16 0 5 -4 3 -8 -3 -4 -5 -23
-18 -42 -28 -65 -33 -116 -61 -143 -79 -15 -9 -27 -14 -27 -10 0 5 -4 4 -8 -2
-4 -5 -25 -19 -47 -31 -56 -29 -230 -123 -290 -156 -27 -15 -72 -39 -100 -53
-27 -14 -63 -34 -80 -44 -16 -9 -77 -42 -135 -73 -58 -31 -127 -68 -155 -83
-27 -15 -93 -50 -145 -78 -52 -28 -115 -62 -140 -77 -102 -59 -328 -141 -430
-156 -19 -3 -41 -7 -48 -9 -27 -10 -161 -19 -267 -18 -131 0 -198 8 -315 34
-25 6 -52 12 -60 14 -88 18 -281 102 -460 201 -47 25 -116 63 -155 84 -38 20
-97 52 -130 70 -33 18 -89 49 -125 68 -36 19 -87 47 -115 62 -27 15 -86 47
-130 70 -82 44 -143 77 -242 131 -31 18 -78 43 -103 56 -25 13 -76 41 -115 61
-38 21 -99 53 -135 72 -36 19 -67 37 -70 40 -7 6 -125 70 -167 89 -18 8 -33
19 -33 23 0 4 -7 8 -15 8 -9 0 -26 7 -38 14 -37 25 -150 86 -178 97 -14 5 -31
20 -36 32 -21 49 -5 65 157 160 85 49 169 98 185 108 17 10 54 30 82 46 29 15
53 31 53 35 0 4 5 8 11 8 6 0 39 17 73 38 33 20 72 43 86 50 14 7 34 18 45 25
11 7 38 23 60 35 22 12 54 31 70 42 17 10 52 31 79 45 80 43 91 50 96 55 5 5
142 85 200 117 14 8 39 23 55 33 17 11 37 23 45 27 8 4 63 35 122 70 59 35
111 63 117 63 6 0 11 4 11 8 0 8 51 36 59 32 2 -1 7 2 10 7 3 5 69 46 146 91
77 45 167 102 200 126 90 68 289 184 395 230 104 46 176 66 260 73 36 3 66 6
68 8 4 3 34 -3 82 -17z m-2775 -1849 c148 -75 208 -106 341 -180 28 -15 85
-46 128 -68 87 -46 107 -63 130 -108 14 -28 16 -95 16 -601 0 -467 -2 -571
-13 -575 -18 -7 -27 0 -63 48 -16 22 -33 44 -37 50 -34 42 -439 577 -463 612
-19 26 -35 40 -39 34 -3 -6 -1 -11 4 -11 6 0 11 -7 11 -15 0 -8 15 -57 34
-108 43 -116 69 -188 146 -407 34 -96 66 -184 71 -195 13 -30 80 -217 86 -240
2 -11 9 -29 14 -40 5 -11 27 -72 50 -135 70 -198 112 -303 137 -350 93 -169
209 -289 382 -392 62 -37 434 -254 545 -318 17 -10 45 -26 62 -36 34 -20 41
-38 21 -51 -16 -9 -20 -10 -111 -18 -40 -3 -90 -8 -112 -10 -22 -2 -65 -7 -95
-10 -134 -12 -167 -16 -199 -20 -18 -3 -63 -8 -100 -11 -36 -2 -82 -7 -101 -9
-19 -3 -66 -7 -105 -11 -66 -5 -106 -18 -67 -21 9 -1 51 -9 92 -18 83 -19 150
-33 194 -41 16 -3 32 -7 36 -9 4 -2 20 -7 36 -9 16 -3 38 -8 49 -10 11 -3 63
-14 115 -26 52 -12 104 -23 115 -25 11 -1 38 -8 60 -13 22 -6 51 -13 65 -16
14 -3 36 -7 50 -11 14 -3 34 -7 45 -9 11 -2 40 -9 65 -15 25 -5 60 -13 79 -16
19 -3 37 -8 41 -10 6 -4 29 -9 95 -20 17 -3 38 -8 47 -11 9 -3 27 -7 40 -10
36 -7 101 -22 128 -28 14 -4 34 -8 45 -10 11 -3 63 -14 115 -26 52 -11 109
-23 126 -26 l31 -6 -1 195 c0 107 -3 198 -6 200 -3 3 -32 20 -65 38 -33 18
-62 35 -65 38 -5 7 -81 49 -117 66 -13 5 -23 13 -23 18 0 4 -5 7 -10 7 -6 0
-43 20 -83 44 -39 24 -88 53 -107 63 -53 30 -213 123 -230 134 -16 9 -218 127
-280 161 -172 97 -296 178 -333 217 -47 50 -104 156 -114 212 -3 19 -6 388 -7
821 -1 776 -1 787 19 802 39 30 61 22 260 -89 22 -12 72 -39 110 -60 39 -21
99 -54 135 -73 36 -20 90 -50 122 -66 208 -113 315 -191 458 -335 176 -177
294 -357 385 -586 15 -38 28 -74 30 -80 1 -5 5 -17 8 -25 7 -18 29 -99 33
-120 1 -8 7 -40 13 -70 15 -72 22 -122 26 -200 4 -62 8 -824 4 -845 -1 -5 0
-14 1 -20 1 -5 1 -35 0 -65 -1 -30 -1 -59 -1 -65 1 -31 1 -124 0 -185 0 -25
-1 -49 0 -55 1 -22 1 -118 0 -185 0 -25 -1 -49 0 -55 1 -22 1 -118 0 -185 0
-25 -1 -49 0 -55 0 -5 1 -32 1 -60 0 -27 0 -69 0 -93 1 -86 -48 -143 -124
-145 -35 -1 -69 14 -226 103 -102 57 -186 108 -188 112 -2 4 -9 8 -14 8 -10 0
-73 35 -198 109 -19 11 -42 24 -50 28 -8 4 -52 29 -98 55 -46 26 -85 48 -87
48 -2 0 -49 27 -105 60 -55 33 -136 78 -178 101 -42 23 -84 48 -92 55 -8 7
-19 13 -25 14 -5 1 -41 20 -80 42 -38 23 -83 48 -100 57 -16 9 -31 19 -33 24
-2 4 -8 7 -12 7 -5 0 -64 32 -131 70 -66 38 -123 70 -125 70 -3 0 -22 11 -42
24 -21 13 -83 48 -138 77 -170 90 -328 210 -420 321 -28 33 -97 137 -111 168
-33 68 -102 239 -109 270 -4 19 -9 480 -10 1025 -3 1293 -3 1274 1 1315 7 80
23 180 29 180 0 0 73 -36 161 -81z m5451 -3 c12 -12 25 -33 29 -46 17 -52 7
-2187 -10 -2279 -1 -9 -6 -41 -10 -71 -6 -45 -22 -132 -40 -210 -2 -8 -8 -28
-15 -45 -6 -16 -11 -30 -10 -30 4 0 -15 -46 -38 -95 -30 -65 -165 -204 -248
-257 -104 -67 -501 -293 -514 -293 -5 0 -10 -4 -10 -8 0 -5 -16 -14 -35 -22
-19 -8 -35 -17 -35 -22 0 -4 -4 -8 -9 -8 -6 0 -37 -16 -70 -35 -33 -20 -63
-36 -65 -36 -6 0 -116 -64 -131 -76 -6 -4 -28 -18 -50 -29 -22 -12 -72 -40
-112 -62 -39 -23 -89 -51 -110 -63 -21 -12 -155 -88 -298 -169 -252 -143 -359
-201 -380 -206 -5 -2 -44 -17 -85 -34 -41 -18 -82 -33 -90 -35 -8 -2 -35 -9
-60 -15 -114 -29 -232 -10 -254 40 -8 20 -11 278 -10 941 1 503 4 939 7 969 3
30 13 89 21 130 8 41 17 86 20 100 9 46 54 186 74 231 11 25 24 57 27 72 4 15
11 27 15 27 5 0 12 10 15 23 9 30 96 181 107 185 4 2 8 8 8 14 0 16 121 166
191 238 176 179 312 268 804 524 33 17 62 33 65 36 3 3 27 16 53 30 152 78
150 78 182 46 l26 -26 -3 -807 -3 -808 -36 -75 c-42 -86 -100 -151 -182 -203
-32 -21 -60 -37 -62 -37 -3 0 -38 -20 -78 -44 -39 -24 -106 -63 -147 -86 -111
-63 -191 -110 -225 -131 -16 -10 -39 -23 -50 -29 -11 -5 -38 -21 -60 -35 -22
-14 -46 -28 -54 -32 -8 -3 -64 -35 -124 -70 -60 -35 -111 -63 -114 -63 -2 0
-9 -5 -16 -10 -7 -6 -77 -49 -157 -95 l-145 -84 0 -160 c0 -89 2 -161 4 -161
4 0 134 73 223 125 86 50 319 185 352 203 22 13 58 35 78 48 21 13 40 24 43
24 3 0 23 11 45 25 22 14 47 25 55 25 20 0 35 -40 24 -60 -8 -13 -76 -187
-175 -445 -19 -49 -39 -98 -44 -107 -6 -10 -10 -23 -10 -30 0 -7 -6 -25 -14
-40 -8 -14 -19 -43 -26 -65 -7 -21 -17 -44 -23 -50 -6 -9 -6 -13 1 -13 5 0 26
19 45 43 38 45 59 69 141 162 29 33 89 101 132 150 43 50 81 92 84 95 3 3 32
36 65 75 33 38 67 76 75 85 8 9 42 48 76 86 182 207 212 241 235 268 13 16 33
38 45 50 111 113 207 267 255 409 48 143 51 189 54 777 1 305 3 558 3 563 5
19 33 2 75 -45 25 -29 55 -64 67 -78 12 -14 42 -50 68 -80 26 -30 57 -65 70
-78 12 -12 22 -27 22 -32 0 -5 6 -13 14 -17 7 -4 40 -39 72 -78 32 -38 61 -72
64 -75 3 -3 35 -39 70 -80 72 -84 86 -100 94 -100 2 0 -11 37 -30 83 -19 45
-43 102 -54 127 -52 127 -73 178 -86 207 -8 17 -14 34 -14 38 0 3 -8 25 -19
48 -10 23 -65 155 -121 292 -57 138 -130 315 -162 395 -61 148 -72 196 -54
240 14 36 54 77 95 99 20 10 74 40 121 65 47 26 101 54 120 64 19 9 37 19 40
22 3 3 27 16 55 30 27 14 66 35 86 46 19 12 44 24 55 27 34 9 88 -4 110 -27z"/>
<path d="M2384 5687 c-87 -111 -163 -207 -169 -213 -5 -7 -19 -24 -29 -39 -11
-14 -27 -34 -35 -44 -9 -10 -27 -33 -41 -51 -14 -19 -52 -68 -85 -109 -151
-190 -392 -497 -398 -508 -5 -8 32 -34 109 -77 64 -36 119 -66 124 -66 5 0 10
-3 12 -7 2 -5 25 -20 52 -34 l49 -25 209 125 c270 163 297 178 336 198 17 9
32 20 32 25 0 4 4 8 10 8 12 0 334 192 338 202 2 5 9 8 15 9 7 0 55 27 107 59
111 70 222 127 265 136 39 8 161 8 200 0 40 -8 101 -35 148 -64 21 -13 53 -31
70 -41 18 -10 199 -119 402 -241 204 -123 379 -228 390 -234 11 -6 86 -51 167
-100 l147 -88 63 34 c192 105 218 122 206 133 -22 20 -147 95 -158 95 -5 0
-10 5 -10 10 0 6 -4 10 -9 10 -11 0 -642 377 -659 395 -10 9 -11 18 -4 31 9
17 24 19 171 19 89 0 161 2 161 5 0 3 26 5 58 6 31 1 113 4 182 8 177 11 239
14 375 21 66 4 145 8 175 10 30 2 81 4 113 6 31 1 57 6 57 10 0 5 -8 9 -17 10
-35 1 -61 6 -153 24 -14 3 -74 14 -135 25 -60 10 -121 21 -135 24 -14 3 -54
10 -90 16 -36 6 -76 13 -90 16 -47 9 -355 65 -405 74 -119 20 -233 41 -275 50
-25 6 -58 12 -75 14 -16 3 -57 10 -90 16 -33 6 -78 13 -100 16 -22 3 -49 8
-60 11 -25 8 -23 8 -120 24 -110 17 -273 18 -370 2 -151 -26 -265 -73 -442
-180 -39 -23 -76 -43 -81 -43 -6 0 -12 -3 -14 -7 -4 -10 -206 -133 -217 -133
-5 0 -11 -4 -13 -8 -3 -7 -35 -26 -168 -103 -14 -8 -27 -17 -30 -20 -3 -3 -18
-13 -35 -22 -103 -55 -94 -52 -111 -35 -14 14 -5 50 106 389 66 206 125 385
131 398 5 13 8 25 6 27 -2 2 -75 -87 -163 -199z"/>
</g>
</svg>
