<svg xmlns="http://www.w3.org/2000/svg" viewBox="0 0 32 32">
  <path d="M28.8 0H3.2A3.2 3.2 0 000 3.2v25.6C0 30.6 1.4 32 3.2 32h25.6c1.8 0 3.2-1.4 3.2-3.2V3.2C32 1.4 30.6 0 28.8 0z" fill="#fff"/>
  <path d="M28.8 0H3.2A3.2 3.2 0 000 3.2v25.6C0 30.6 1.4 32 3.2 32h25.6c1.8 0 3.2-1.4 3.2-3.2V3.2C32 1.4 30.6 0 28.8 0zM9.4 19.3c1.4.6 3 0 3.7-1.4h2.2c-1.3 5.6-9.7 4.6-9.7-1.2s8.4-6.8 9.7-1.1h-2.2a2.8 2.8 0 10-3.7 3.7zm15.1 1.1c-.4.4-.9.7-1.4.9a5 5 0 01-4.5-.6v.6h-2V7.2h2v5.4a5 5 0 012.4-.8h.3c4.6 0 6.7 5.7 3.2 8.6zm-.3-3.7c0 1.6-1.2 2.9-2.8 2.9s-2.8-1.3-2.8-2.9c0-3.6 5.5-3.6 5.6 0z" fill="#0287d1"/>
</svg>
