<svg xmlns="http://www.w3.org/2000/svg" width="24" height="24" viewBox="-0.8 -0.4 74.5 33.9">
  <path fill="#ff5900" d="M59.1 7.4l3 3.3L65 7.4H71l-6 6.7 6 6.8h-6.3l-3-3.3L59 21h-6.1l6-6.7-6-6.8zM52.8 7.4V12H46v4.2h6.8v4.7H41V-.4h11.8v4.8H46v3z"/>
  <path d="M36-.4v8.8a5 5 0 00-4.1-1.8 6.9 6.9 0 00-6.6 5.2c-1-3.2-3.6-5.2-7.4-5.2-3 0-5.5 1.4-6.7 3.6V7.4H4.8v-3h7V-.4H-.8V21h5.6v-9h5.7c-.2.7-.3 1.4-.3 2.2 0 4.4 3.4 7.5 7.7 7.5 3.7 0 6-1.7 7.3-4.8h-4.8c-.7 1-1.1 1.2-2.5 1.2a3 3 0 01-2.8-2.9H25c.4 3.6 3.2 6.6 7 6.6 1.5 0 3-.8 4-2.1v1.3h5V-.4h-5zM15.3 12c.3-1.3 1.3-2.2 2.6-2.2 1.5 0 2.5.9 2.7 2.2h-5.3zM33 17.7c-1.9 0-3-1.7-3-3.5 0-2 1-3.8 3-3.8s2.9 1.9 2.9 3.8c0 1.8-1 3.5-3 3.5zM41 31.6v-7.7h4.2v.6h-3.5v2.8H45v.6h-3.3V31h3.7v.6H41zM45.9 31.6l2-2.8-2-2.6h.9l1.5 2.2 1.6-2.2h.8l-2 2.6 2 2.8H50l-1.7-2.3-1.6 2.3h-.8zM52.1 33.6h-.6v-5.8-1.6h.6v.8c.4-.6 1-.9 1.7-.9 1.7 0 2.4 1.4 2.4 2.8s-.7 2.8-2.4 2.8c-.7 0-1.3-.3-1.7-.9v2.8zm3.4-4.7c0-1.1-.5-2.2-1.8-2.2-1.2 0-1.6 1-1.6 2.2 0 1.3.4 2.3 1.6 2.3 1.3 0 1.8-1.2 1.8-2.3zM59.5 26.7c-1.1 0-1.5 1-1.5 1.9v3h-.6v-3.8-1.6h.6v.8c.3-.6.9-.9 1.6-.9h.3v.7h-.4zM60.7 29c0 1.2.5 2.2 1.7 2.2.9 0 1.3-.6 1.5-1.2h.6c-.3 1.1-1 1.7-2.2 1.7-1.6 0-2.3-1.2-2.3-2.7 0-1.5.7-2.9 2.4-2.9s2.1 1.5 2.1 3h-3.8zm0-.5h3.2c0-1-.5-1.9-1.5-1.9s-1.6.7-1.7 2zM67 31.7c-1 0-1.9-.5-1.9-1.7h.7c0 .8.5 1.2 1.3 1.2.7 0 1.3-.3 1.3-1s-.7-.9-1.4-1c-.8-.3-1.7-.6-1.7-1.6 0-1.1 1-1.5 1.8-1.5 1 0 1.8.4 1.9 1.5h-.7c0-.6-.5-1-1.2-1-.5 0-1.1.2-1.1 1 0 .6.6.7 1.3 1 .8.2 1.8.4 1.8 1.5 0 1.2-1 1.6-2 1.6zM71.5 31.7c-1 0-1.9-.5-1.9-1.7h.6c0 .8.6 1.2 1.3 1.2.8 0 1.3-.3 1.3-1s-.6-.9-1.3-1c-.9-.3-1.8-.6-1.8-1.6 0-1.1 1-1.5 1.9-1.5 1 0 1.8.4 1.8 1.5h-.6c0-.6-.5-1-1.2-1-.5 0-1.2.2-1.2 1 0 .6.7.7 1.4 1 .8.2 1.7.4 1.7 1.5 0 1.2-.9 1.6-2 1.6z" fill="#2a007c"/>
</svg>
