<svg xmlns="http://www.w3.org/2000/svg" viewBox="0 0 400 400"><defs><linearGradient id="fhir-1" x1="50.006%" x2="50.006%" y1="119.039%" y2="8.638%"><stop offset="0%" stop-color="#FFF"/><stop offset="4%" stop-color="#FFF7BC"/><stop offset="8%" stop-color="#FFF083"/><stop offset="12%" stop-color="#FFEB54"/><stop offset="15%" stop-color="#FFE72F"/><stop offset="19%" stop-color="#FFE415"/><stop offset="22%" stop-color="#FFE206"/><stop offset="24%" stop-color="#FFE100"/><stop offset="28%" stop-color="#FFDA00"/><stop offset="34%" stop-color="#FAC600"/><stop offset="42%" stop-color="#F2A200"/><stop offset="52%" stop-color="#E86A14"/><stop offset="62%" stop-color="#DE1119"/><stop offset="100%" stop-color="#E20E18"/></linearGradient><linearGradient id="fhir-2" x1="49.978%" x2="49.978%" y1="1716.568%" y2="1589.042%"><stop offset="0%" stop-color="#FFF"/><stop offset="4%" stop-color="#FFF7BC"/><stop offset="8%" stop-color="#FFF083"/><stop offset="12%" stop-color="#FFEB54"/><stop offset="15%" stop-color="#FFE72F"/><stop offset="19%" stop-color="#FFE415"/><stop offset="22%" stop-color="#FFE206"/><stop offset="24%" stop-color="#FFE100"/><stop offset="28%" stop-color="#FFDA00"/><stop offset="34%" stop-color="#FAC600"/><stop offset="42%" stop-color="#F2A200"/><stop offset="52%" stop-color="#E86A14"/><stop offset="62%" stop-color="#DE1119"/><stop offset="100%" stop-color="#E20E18"/></linearGradient><linearGradient id="fhir-3" x1="49.988%" x2="49.988%" y1="1584.277%" y2="1423.609%"><stop offset="0%" stop-color="#FFF"/><stop offset="4%" stop-color="#FFF7BC"/><stop offset="8%" stop-color="#FFF083"/><stop offset="12%" stop-color="#FFEB54"/><stop offset="15%" stop-color="#FFE72F"/><stop offset="19%" stop-color="#FFE415"/><stop offset="22%" stop-color="#FFE206"/><stop offset="24%" stop-color="#FFE100"/><stop offset="28%" stop-color="#FFDA00"/><stop offset="34%" stop-color="#FAC600"/><stop offset="42%" stop-color="#F2A200"/><stop offset="52%" stop-color="#E86A14"/><stop offset="62%" stop-color="#DE1119"/><stop offset="100%" stop-color="#E20E18"/></linearGradient><linearGradient id="fhir-4" x1="49.99%" x2="49.99%" y1="98.848%" y2="-27.528%"><stop offset="0%" stop-color="#FFFCEE"/><stop offset="64%" stop-color="#FFE62E"/><stop offset="75%" stop-color="#FFE300"/><stop offset="81%" stop-color="#FFE100"/><stop offset="85%" stop-color="#FFDB00"/><stop offset="89%" stop-color="#FFD000"/><stop offset="92%" stop-color="#FCC000"/><stop offset="95%" stop-color="#F7AA00"/><stop offset="98%" stop-color="#F18E00"/><stop offset="100%" stop-color="#EC7503"/></linearGradient><linearGradient id="fhir-5" x1="50.011%" x2="50.011%" y1="95.015%" y2="-58.071%"><stop offset="0%" stop-color="#FFF"/><stop offset="4%" stop-color="#FFF8BC"/><stop offset="8%" stop-color="#FFF183"/><stop offset="12%" stop-color="#FFEC54"/><stop offset="15%" stop-color="#FFE82F"/><stop offset="19%" stop-color="#FFE515"/><stop offset="22%" stop-color="#FFE406"/><stop offset="24%" stop-color="#FFE300"/><stop offset="28%" stop-color="#FFDB00"/><stop offset="34%" stop-color="#FDC700"/><stop offset="42%" stop-color="#F4A200"/><stop offset="52%" stop-color="#E96A13"/><stop offset="62%" stop-color="#DE1119"/><stop offset="100%" stop-color="#E20E18"/></linearGradient><linearGradient id="fhir-6" x1="49.984%" x2="49.984%" y1="95.253%" y2="13.048%"><stop offset="0%" stop-color="#FFFCEE"/><stop offset="58%" stop-color="#FFE62E"/><stop offset="69%" stop-color="#FFE300"/><stop offset="82%" stop-color="#FDC200"/><stop offset="94%" stop-color="#F7A400"/><stop offset="100%" stop-color="#F49800"/></linearGradient></defs><g fill="none"><path fill="url(#fhir-1)" d="M149.455.356s42.937 67.14 35.47 133.365c-7.467 66.226-53.205 97.009-76.074 147.98-22.868 50.97-9.334 104.134 9.335 117.836C93.45 382.18 28.11 349.753 32.778 263.888c2.333-26.49 19.135-74.446 59.272-120.576C132.187 97.182 158.79 78 149.455.356z" transform="translate(68)"/><path fill="url(#fhir-2)" d="M60.155 353.203S3.302 311.502.678 248.95c-2.187-27.65 12.245-69.804 47.232-101.987 39.797-36.715 51.167-44.421 59.477-53.94-23.179 28.557-73.472 83.856-81.344 131.45-6.712 45.98 5.683 92.754 34.112 128.73z" transform="translate(68)"/><path fill="url(#fhir-3)" d="M131.958 399.537S92.863 344.245 121.34 284.77c9.653-18.12 43.922-57.615 60.332-93.857 16.41-36.241 19.79-58.08 18.824-83.634 25.581 33.918 66.125 134.745 19.79 212.804 14.48-8.828 36.199-28.343 43.921-49.717-3.86 43.026-24.133 123.873-132.249 129.17z" transform="translate(68)"/><path fill="url(#fhir-4)" d="M135.768 395.973s-25.942-43.76 3.492-87.05c23.448-35.292 48.393-42.35 62.362-80.464 2.494 39.997.998 92.697-35.421 136.928 13.539-2.222 26.347-7.376 37.417-15.057-8.98 17.128-24.945 38.584-67.85 45.643z" transform="translate(68)"/><path fill="url(#fhir-5)" d="M103.589 381.716s-71.061-78.993-21.27-159.879c34.805-58.18 79.279-61.965 88.947-146.634 0 61.019 6.768 91.292-46.89 159.406-35.29 44.652-43.508 105.009-20.787 147.107z" transform="translate(68)"/><path fill="url(#fhir-6)" d="M186.346.356s18.843 55.137-37.685 134.166C107.3 191.955 25.955 277.417 112.355 381.716c-34.928-36.298-68.936-99.245-31.251-174.139C115.802 140.035 199.214 96.11 186.346.357z" transform="translate(68)"/><path fill="#E02726" d="M293.364 66.183a3.701 3.701 0 01-2.617.874h-2.18v-5.244h3.925c.33.046.637.2.872.437.436.437.436.437.436.874v1.049a1.75 1.75 0 01-.436 2.184m8.285 11.362l-1.309-3.496a19.02 19.02 0 00-1.744-3.059 3.747 3.747 0 00-2.616-1.31 8.41 8.41 0 003.924-2.186 6.126 6.126 0 001.308-3.932 6.346 6.346 0 00-.872-3.06 5.282 5.282 0 00-2.18-2.184 21.255 21.255 0 00-3.052-1.311 12.054 12.054 0 00-3.925-.437h-7.412a2.962 2.962 0 00-2.185.869 2.975 2.975 0 00-.868 2.19V79.03a.96.96 0 00.873.874c1 .247 2.022.393 3.052.437 1.308 0 2.18 0 2.616-.437.436-.437.436-.437.436-.874v-6.992h1.308a3.265 3.265 0 012.18.437 7.129 7.129 0 011.309 2.622l.872 3.933c0 .437 0 .437.436.874l.436.437c.48-.058.96.102 1.308.437h5.668c.437 0 .437 0 .437-.437v-.437a1.97 1.97 0 000-2.185m5.232-1.311a11.144 11.144 0 01-3.488 5.244 11.118 11.118 0 01-5.233 3.495 18.062 18.062 0 01-6.977 1.311 14.537 14.537 0 01-6.54-1.31 15.695 15.695 0 01-5.233-3.496 24.786 24.786 0 01-3.488-5.681 18.169 18.169 0 01-1.308-6.992 17.512 17.512 0 011.308-6.554 11.144 11.144 0 013.488-5.244 11.118 11.118 0 015.233-3.496 18.062 18.062 0 016.977-1.31c2.248-.032 4.477.415 6.54 1.31 1.962.8 3.742 1.989 5.233 3.496a24.786 24.786 0 013.488 5.68 18.169 18.169 0 011.308 6.992l-1.308 6.555m6.105-16.168a27.055 27.055 0 00-4.797-7.429 21.797 21.797 0 00-7.413-4.807 33.943 33.943 0 00-9.593-1.31 22.719 22.719 0 00-9.156 1.747 21.797 21.797 0 00-7.413 4.807 16.871 16.871 0 00-4.797 7.429 20.314 20.314 0 00-1.744 9.176 20.314 20.314 0 001.744 9.177 27.055 27.055 0 004.797 7.428 21.797 21.797 0 007.413 4.807 21.413 21.413 0 009.156 1.748c3.14.057 6.258-.538 9.157-1.748a21.797 21.797 0 007.413-4.807 16.871 16.871 0 004.797-7.428 20.314 20.314 0 001.744-9.177 21.41 21.41 0 00-1.308-9.613"/></g></svg>
