<svg xmlns="http://www.w3.org/2000/svg" viewBox="0 0 70.423 70.423"><path fill="#fff" d="M18.766 68.682c-4.329-.94-7.58-3.479-8.712-6.801-.79-2.316-.677-6.072.333-11.15.485-2.438.882-5.348.882-6.467-.001-3.718-1.711-5.736-5.1-6.017l-1.955-.162V33.3l1.852-.251c2.702-.366 3.744-1.028 4.576-2.909.611-1.382.689-2.069.506-4.473-.12-1.562-.536-4.348-.925-6.192-.99-4.683-.948-8.485.117-10.773 1.568-3.368 5.437-5.854 9.932-6.383l1.933-.227v5.036h-1.3c-1.771 0-4.25 1.262-4.883 2.488-.608 1.176-.654 2.864-.158 5.802.783 4.644 1.047 9.099.676 11.422-.425 2.658-1.975 5.796-3.68 7.448l-1.18 1.144 1.615 1.983c1.99 2.444 2.765 4.148 3.243 7.142.379 2.369.085 7.283-.67 11.214-1.054 5.485.162 7.652 4.662 8.306l1.675.244v2.448c0 2.792.171 2.697-3.439 1.913zm29.237-1.941v-2.43l2.05-.423c2.262-.467 4.053-1.863 4.458-3.475.127-.507-.113-3.164-.534-5.903-1.372-8.93-.611-13.537 2.855-17.297l1.482-1.608-1.11-1.265c-3.979-4.532-4.67-8.553-3.154-18.37.763-4.946.764-4.994.087-6.174-.797-1.388-3.284-2.776-4.974-2.776h-1.16V4.55c0-2.81-.059-2.773 3.245-2.072 3.965.841 6.805 2.853 8.278 5.865.846 1.728.973 2.4.95 5.01-.016 1.66-.358 4.683-.762 6.72-1.499 7.564-1.365 9.576.766 11.533.989.908 1.64 1.173 3.37 1.368l2.144.243v4.848H64.32c-2.152.001-3.933.91-4.84 2.47-.951 1.637-.892 5.206.175 10.406.906 4.422 1.052 8.459.388 10.73-.7 2.393-3.82 5.295-6.748 6.276-1.26.423-2.967.871-3.792.997l-1.5.227z"/><path fill="#fff" d="M27.515 62.758c-1.022-1.299-.873-3.537.38-5.732.928-1.624 4.809-6.948 7.611-10.44l1.131-1.41-1.802-5.226c-2.022-5.86-2.01-5.974.656-6.372l1.468-.219 1.64 3.35c.903 1.844 1.77 3.351 1.928 3.351.158 0 1.775-1.755 3.594-3.9 3.16-3.727 3.357-3.892 4.426-3.694.645.12 1.219.047 1.354-.173.318-.515 1.231.247 1.231 1.027 0 .32-.454 1.134-1.01 1.81-2.267 2.755-7.104 9.27-7.104 9.57 0 .177.975 2.454 2.167 5.059l2.167 4.736-.659.985c-.362.541-.662 1.126-.667 1.299-.005.173-.278.484-.606.69-.832.525-1.446-.115-3.99-4.153-1.163-1.848-2.23-3.364-2.371-3.37-.314-.01-3.792 5.133-6.48 9.581-2.37 3.924-1.939 3.42-3.266 3.801-.955.274-1.194.199-1.798-.57zm.243-24.588c-2.152-3.848-6.018-9.43-7.579-10.939-.792-.767-1.44-1.575-1.44-1.795 0-.602 1.616-1.22 3.19-1.22 1.698 0 3.496 1.478 5.1 4.192.582.985 1.156 1.794 1.276 1.798.12.004.809-1.651 1.53-3.678 1.547-4.34 5.624-12.778 7.225-14.951 1.373-1.863 3.43-2.865 5.903-2.876 3.234-.013 3.243.13.205 3.297-4.636 4.832-6.763 8.81-11.252 21.037-1.246 3.396-2.39 6.48-2.542 6.852-.23.566-.498.281-1.616-1.718z"/></svg>