<svg xmlns="http://www.w3.org/2000/svg" viewBox="0 0 200 200"><path fill="#1bcbe2" d="M130.73 102.41a2.59 2.59 0 002.59-2.59V81.09c0-1.08-.67-2.05-1.68-2.43l-30.73-11.52c-.59-.22-1.23-.22-1.82 0L68.36 78.67a2.598 2.598 0 00-1.68 2.43v8.32a2.59 2.59 0 005.18 0v-4.58l25.55 9.58v34.27l-25.55-9.58v-17.56a2.59 2.59 0 00-5.18 0v19.36c0 1.08.67 2.05 1.68 2.43l30.73 11.52v-.01c.29.11.6.17.91.17.31 0 .61-.05.91-.17l30.73-11.52a2.598 2.598 0 001.68-2.43v-9a2.59 2.59 0 00-5.18 0v7.2l-25.55 9.58V94.42l25.55-9.58v14.98a2.59 2.59 0 002.59 2.59zM100 89.85L76.65 81.1 100 72.34l23.35 8.76L100 89.85zm-2.59-51.47V57a2.59 2.59 0 005.18 0V38.38c5.97-1.21 10.48-6.49 10.48-12.81 0-7.21-5.86-13.07-13.07-13.07s-13.07 5.86-13.07 13.07c0 6.32 4.51 11.6 10.48 12.81zM100 17.69c4.35 0 7.88 3.54 7.88 7.88s-3.54 7.88-7.88 7.88-7.88-3.54-7.88-7.88 3.53-7.88 7.88-7.88zm49.88 115.23c-4.02 0-7.73 1.33-10.73 3.56l-6.21-6.21c-1.01-1.01-2.65-1.01-3.67 0s-1.01 2.65 0 3.67l6.21 6.21c-2.24 3-3.56 6.71-3.56 10.73 0 9.9 8.06 17.96 17.96 17.96s17.96-8.06 17.96-17.96-8.06-17.96-17.96-17.96zm0 30.73c-7.04 0-12.77-5.73-12.77-12.77 0-7.04 5.73-12.77 12.77-12.77s12.77 5.73 12.77 12.77c0 7.04-5.73 12.77-12.77 12.77zM50.12 69.08c4.02 0 7.73-1.33 10.73-3.56l6.21 6.21c.51.51 1.17.76 1.83.76s1.33-.25 1.83-.76a2.601 2.601 0 000-3.67l-6.21-6.21c2.24-3 3.56-6.71 3.56-10.73 0-9.9-8.06-17.96-17.96-17.96s-17.96 8.06-17.96 17.96 8.07 17.96 17.97 17.96zm0-30.73c7.04 0 12.77 5.73 12.77 12.77s-5.73 12.77-12.77 12.77-12.77-5.73-12.77-12.77 5.73-12.77 12.77-12.77zm52.47 125.27V145a2.59 2.59 0 00-5.18 0v18.62c-5.97 1.21-10.48 6.49-10.48 12.81 0 7.21 5.86 13.07 13.07 13.07s13.07-5.86 13.07-13.07c0-6.32-4.51-11.6-10.48-12.81zM100 184.31c-4.35 0-7.88-3.54-7.88-7.88s3.54-7.88 7.88-7.88c4.35 0 7.88 3.54 7.88 7.88s-3.53 7.88-7.88 7.88zm75.43-96.38c-6.32 0-11.6 4.51-12.81 10.48H144a2.59 2.59 0 000 5.18h18.62c1.21 5.97 6.49 10.48 12.81 10.48 7.21 0 13.07-5.86 13.07-13.07s-5.86-13.07-13.07-13.07zm0 20.95c-4.35 0-7.88-3.54-7.88-7.88s3.54-7.88 7.88-7.88 7.88 3.54 7.88 7.88c0 4.35-3.53 7.88-7.88 7.88zm-138.05-5.29H56a2.59 2.59 0 000-5.18H37.38c-1.21-5.97-6.49-10.48-12.81-10.48-7.21 0-13.07 5.86-13.07 13.07s5.86 13.07 13.07 13.07c6.32 0 11.6-4.51 12.81-10.48zm-12.81 5.29c-4.35 0-7.88-3.54-7.88-7.88s3.54-7.88 7.88-7.88 7.88 3.54 7.88 7.88c0 4.35-3.53 7.88-7.88 7.88zm106.54-36.4c.66 0 1.33-.25 1.83-.76l6.21-6.21c3 2.24 6.71 3.56 10.73 3.56 9.9 0 17.96-8.06 17.96-17.96s-8.06-17.96-17.96-17.96-17.96 8.06-17.96 17.96c0 4.02 1.33 7.73 3.56 10.73l-6.21 6.21a2.601 2.601 0 000 3.67c.52.51 1.18.76 1.84.76zm18.77-34.13c7.04 0 12.77 5.73 12.77 12.77s-5.73 12.77-12.77 12.77c-7.04 0-12.77-5.73-12.77-12.77s5.73-12.77 12.77-12.77zm-82.83 91.93l-6.21 6.21c-3-2.24-6.71-3.56-10.73-3.56-9.9 0-17.96 8.06-17.96 17.96s8.06 17.96 17.96 17.96 17.96-8.06 17.96-17.96c0-4.02-1.33-7.73-3.56-10.73l6.21-6.21a2.601 2.601 0 000-3.67 2.601 2.601 0 00-3.67 0zm-16.93 33.37c-7.04 0-12.77-5.73-12.77-12.77 0-7.04 5.73-12.77 12.77-12.77s12.77 5.73 12.77 12.77c0 7.04-5.73 12.77-12.77 12.77z"/></svg>
