<svg xmlns="http://www.w3.org/2000/svg" width="24" height="24" viewBox="0 0 48 48">
  <defs>
    <linearGradient id="mongooseA" x1="24.2" y1="47.6" x2="25.6" y2="0" gradientUnits="userSpaceOnUse">
      <stop stop-color="#74cb32"/>
      <stop offset="1" stop-color="#abeb6b"/>
    </linearGradient>
  </defs>
  <circle r="24" cy="24" cx="24" fill="url(#mongooseA)"/>
  <path d="M31 10s-2.3 2.2-4.8 3.1C7.8 19.8 15.5 32.8 15.8 33c0 0 1-1.8 2.4-2.9C27.1 23.5 29 16 29 16s-2 9-9.9 14.7c-1.7 1.2-2.9 4.2-3.4 7.3l1.8-.6c.2-1.4.6-2.7 1.3-3.8a13 13 0 0015.1-10.7C35 15.6 31 10 31 10" fill="#283d16"/>
</svg>
