<svg xmlns="http://www.w3.org/2000/svg" preserveAspectRatio="xMinYMin meet" viewBox="0 0 256 290"><path fill="#008CC1" d="M243.29 131.526c0 67.188-54.458 121.645-121.645 121.645S0 198.714 0 131.526C0 64.34 54.458 9.882 121.645 9.882c67.187-.059 121.644 54.457 121.644 121.644"/><path fill="#FFF" d="M53.927 91.626c0 5.364-4.361 9.725-9.724 9.725-5.364 0-9.725-4.36-9.725-9.725 0-5.363 4.36-9.724 9.725-9.724a9.696 9.696 0 019.724 9.724m1.65 26.699c0 5.363-4.361 9.725-9.724 9.725s-9.725-4.362-9.725-9.725c0-5.364 4.362-9.724 9.725-9.724a9.696 9.696 0 019.724 9.724m5.953 28.29c0 5.363-4.362 9.724-9.725 9.724-5.363 0-9.725-4.361-9.725-9.724 0-5.365 4.362-9.725 9.725-9.725 5.363-.059 9.724 4.302 9.724 9.725m13.321 25.342c0 5.363-4.363 9.725-9.726 9.725s-9.724-4.362-9.724-9.725c0-5.364 4.361-9.724 9.724-9.724 5.363-.06 9.725 4.302 9.725 9.724m104.141 35.421c0 5.363-4.361 9.724-9.725 9.724-5.363 0-9.724-4.361-9.724-9.724s4.36-9.725 9.724-9.725 9.725 4.362 9.725 9.725m17.68-20.923c0 5.363-4.36 9.724-9.725 9.724-5.363 0-9.724-4.36-9.724-9.724 0-5.363 4.361-9.725 9.724-9.725 5.365 0 9.726 4.362 9.726 9.725m-51.275-147.93c0 5.363-4.362 9.724-9.725 9.724-5.363 0-9.724-4.36-9.724-9.724 0-5.363 4.361-9.724 9.724-9.724s9.725 4.36 9.725 9.724m-25.578-8.958c0 5.363-4.362 9.724-9.725 9.724-5.363 0-9.724-4.36-9.724-9.724 0-5.363 4.36-9.725 9.724-9.725 5.363 0 9.725 4.362 9.725 9.725"/><path fill="#66B245" d="M188.773 37.7c35.804 0 64.83 29.026 64.83 64.83s-29.026 64.83-64.83 64.83c-35.805 0-64.83-29.026-64.83-64.83s29.025-64.83 64.83-64.83"/><path fill="#FFF" d="M188.773 169.096c-36.705 0-66.567-29.862-66.567-66.566 0-36.705 29.862-66.566 66.567-66.566 36.704 0 66.566 29.86 66.566 66.566 0 36.704-29.862 66.566-66.566 66.566zm0-129.66c-34.79 0-63.094 28.305-63.094 63.094 0 34.79 28.304 63.093 63.094 63.093 34.79 0 63.093-28.303 63.093-63.093 0-34.79-28.303-63.093-63.093-63.093z"/><path fill="#66B245" d="M99.956 181.682c29.294 0 53.043 23.747 53.043 53.042 0 29.294-23.749 53.043-53.043 53.043-29.295 0-53.043-23.749-53.043-53.043 0-29.295 23.748-53.042 53.043-53.042"/><path fill="#FFF" d="M99.956 289.503c-30.206 0-54.779-24.574-54.779-54.779 0-30.206 24.573-54.779 54.78-54.779 30.205 0 54.778 24.573 54.778 54.78 0 30.204-24.573 54.778-54.779 54.778zm0-106.085c-28.29 0-51.306 23.015-51.306 51.306 0 28.29 23.016 51.306 51.306 51.306s51.306-23.016 51.306-51.306-23.016-51.306-51.306-51.306z"/><path fill="#66B245" d="M56.284 1.984c19.53 0 35.362 15.833 35.362 35.362 0 19.53-15.832 35.362-35.362 35.362S20.923 56.876 20.923 37.346 36.755 1.984 56.284 1.984"/><path fill="#FFF" d="M56.284 74.444c-20.456 0-37.098-16.642-37.098-37.098S35.828.248 56.284.248 93.382 16.89 93.382 37.346 76.74 74.444 56.284 74.444zm0-70.723c-18.54 0-33.625 15.084-33.625 33.625s15.084 33.626 33.625 33.626S89.91 55.887 89.91 37.346c0-18.54-15.085-33.625-33.626-33.625z"/></svg>