<svg xmlns="http://www.w3.org/2000/svg" viewBox="0 0 200 200"><path fill="#ff8c00" d="M0 .9h200V199H0V.9z"/><path fill="#fff" d="M51.6 184.8c-12.9-1.4-23.7-10.6-26.9-23.4-.9-5-.9-9.9 0-14.7 1.6-6 5-11.5 9.6-15.8 5.7-5.1 12.9-7.8 20.5-7.6 14 0 26.2 9.2 29.9 22.9 1.2 5.3 1.2 10.8 0 16.1-4.1 14.4-17.9 23.9-33.1 22.5zm-33-130.4h72.3v18.8H18.6V54.4zm0 36.2h72.3v18.8H18.6V90.6zm90.7-36.4h72.3V73h-72.3V54.2zm0 36.2h72.3v18.8h-72.3V90.4zm0 36.1h72.3v18.8h-72.3v-18.8zM18.6 19h72.3v18.8H18.6V19zm90.7-.2h72.3v18.8h-72.3V18.8z"/></svg>
