<svg xmlns="http://www.w3.org/2000/svg" viewBox="0 0 120 120"><path fill="#93d500" d="M31.6 68.8H.1v.5c0 .3 0 .6.1.9v.4c0 .3.1.7.1 1v.2c0 .4.1.8.1 1.1v.1c0 .4.1.8.2 1.2.4 2.5.9 5 1.6 7.5.1.4.2.8.4 1.2v.2c.1.3.2.7.3 1 .1 0 .1.1.1.2l.3.9c.1.1.1.3.2.4.1.2.2.5.3.7.1.2.2.4.2.6.1.2.2.4.2.6.1.2.2.5.3.7.1.1.1.3.2.4.1.3.3.6.4.8 0 .1.1.2.1.3.2.3.3.6.5 1 0 0 0 .1.1.1.2.3.4.7.6 1 0 .1.1.1.1.2l27-16.2.1-.1c-1.1-2.1-1.7-4.5-2-6.9z"/><path fill="#93d500" d="M1.5 83.2l.1.1 1-.3z"/><path fill="#4d5a31" d="M39.4 83.3l-22.3 22.3.3.3.6.6.3.3c.3.2.5.4.8.6l.2.2c.3.2.6.5.9.7l.1.1c.3.2.6.5 1 .7 1.3 1 2.7 1.9 4.2 2.8l.1.1c.3.2.5.3.8.5.2.1.3.2.5.3.2.1.3.2.5.3.3.2.6.3.9.5 0 0 .1 0 .1.1.8.4 1.6.8 2.5 1.2l.8-1.9 11.2-27.2v-.1c-1.3-.8-2.4-1.5-3.5-2.4z"/><path fill="#6ba43a" d="M37.1 81c-.2-.3-.5-.5-.7-.8-.2-.2-.4-.5-.6-.7l-.6-.9-.6-.9L7.6 94c.4.7.8 1.4 1.3 2v.2c0 .1.1.1.1.2.5.7.9 1.4 1.4 2 .2.3.4.6.7.9l.1.1c.2.3.5.6.7.9l.2.2c.2.3.4.5.6.8l.3.3.6.6.3.3c0 .1.1.1.1.2.1.2.3.3.4.4l.2.2c.2.3.5.5.7.8l22.3-22.3c-.1-.2-.3-.5-.5-.8z"/><path fill="#4d5a31" d="M66.6 83.2c-.2.2-.5.4-.7.6l.1.1 16.2 26.9c.8-.5 1.5-1 2.2-1.5 1.6-1.2 3.1-2.4 4.6-3.8L66.6 83.2z"/><path fill="#93d500" d="M80.1 112.1zm-.1.1zm.1-.1c.1 0 .1-.1.2-.1-.1 0-.1.1-.2.1zm-.1.1l.1-.1zm0 0v-.1zm.1-.1zm-.1.1zm0 0zm0 0l.1-.1z"/><path fill="#93d500" d="M80.1 112.1c.1 0 .1-.1.2-.1-.1.1-.1.1-.2.1zm.2-.1zm-.3.2zm0 0zm0 0zm-.3-1.1l-.5-.9L64 85c-.3.2-.6.4-.9.5-.3.2-.6.3-1 .5-2.9 1.4-6.1 2.1-9.2 2.1-2.1 0-4.1-.3-6.1-.9-.3-.1-.7-.2-1-.4-.3-.1-.7-.2-1-.4l-11.2 27.1-.4 1.1-.4.9h.2c.3.1.5.2.8.3.3.1.7.3 1 .4.2.1.3.1.5.2 3.5 1.2 7.1 2.1 10.8 2.6.1 0 .3 0 .4.1h.5c.3 0 .6.1.9.1h.2c.3 0 .7.1 1 .1h.4c.3 0 .6 0 .9.1H53c2.9 0 5.9-.2 8.8-.7h.1c.3-.1.6-.1.9-.2.2 0 .3-.1.5-.1s.4-.1.5-.1c.3-.1.6-.1.9-.2h.2c4.4-1 8.7-2.6 12.7-4.7.3-.1.5-.3.8-.4.3-.2.6-.3.9-.5.2-.1.4-.2.6-.4v-.1.1c.1 0 .1-.1.2-.1l-.4-.9zM39.4 50c.2-.2.5-.4.7-.6l-.1-.1-16.2-26.9c-.8.5-1.5 1-2.2 1.5-1.6 1.2-3.1 2.4-4.6 3.8L39.4 50z"/><path fill="#4d5a31" d="M15.5 29.2c-.3.3-.5.5-.7.8-.2.3-.5.5-.7.8-1.6 1.8-3.1 3.6-4.5 5.6-.1.1-.1.2-.2.3-.2.1-.4.3-.5.5-.2.2-.3.5-.5.7-.1.1-.1.2-.2.3C3.1 46.2.3 55.3 0 64.5v2.2h31.5c0-.4 0-.7.1-1.1 0-.4 0-.7.1-1.1.4-4.1 2-8.1 4.7-11.5.2-.3.5-.5.7-.8.2-.3.5-.5.7-.8L15.5 29.2zm65-7.8l-.1-.1c-.3-.2-.6-.3-.8-.5-.2-.1-.3-.2-.5-.3-.2-.1-.3-.2-.5-.3-.3-.2-.6-.3-.9-.5 0 0-.1 0-.1-.1-1.8-1-3.7-1.8-5.7-2.6 0 0-.1 0-.2-.1-.4-.2-.8-.3-1.3-.5-3.4-1.2-7-2-10.6-2.5-.1 0-.3 0-.4-.1H59c-.3 0-.6-.1-.9-.1h-.2c-.3 0-.7-.1-1-.1h-.4c-.3 0-.6 0-.9-.1h-.5V45c1.6.2 3.2.5 4.8 1l23.2-23.2c-.8-.3-1.7-.9-2.6-1.4z"/><path fill="#6ba43a" d="M26.2 22.2l-.6-.9zm-.6-.9zm26.3-7.6h-1.1c-2.2.1-4.5.3-6.7.7H44c-.3.1-.6.1-.9.2-.2 0-.3.1-.5.1s-.4.1-.5.1c-.3.1-.6.1-.9.2H41c-4.4 1-8.7 2.6-12.7 4.7-.3.1-.5.3-.8.4-.3.2-.6.3-.9.5-.2.1-.5.3-.7.4-.1 0-.1.1-.2.1l.6.9L42 48.1c.3-.2.6-.4.9-.5.3-.2.6-.3 1-.5 2.2-1.1 4.6-1.7 7-2 .4 0 .7-.1 1.1-.1h1.1V13.5c-.5.2-.8.2-1.2.2z"/><path fill="#4d5a31" d="M105.9 64c0-.3 0-.6-.1-.8v-.4c0-.3-.1-.7-.1-1v-.3c0-.4-.1-.7-.1-1.1v-.1c0-.4-.1-.8-.2-1.2-.4-2.5-.9-5-1.6-7.4-.1-.4-.2-.8-.3-1.1v-.2c-.1-.3-.2-.7-.3-1 0-.1-.1-.2-.1-.3l-.3-.9c-.1-.1-.1-.3-.2-.4-.1-.2-.2-.5-.3-.7-.1-.2-.2-.4-.2-.6-.1-.2-.2-.4-.2-.6-.1-.2-.2-.5-.3-.7-.1-.1-.1-.3-.2-.4-.1-.3-.3-.6-.4-.9 0-.1-.1-.2-.1-.3-.2-.3-.3-.6-.5-1 0 0 0-.1-.1-.1-.2-.4-.4-.7-.6-1.1-.9-1.7-1.9-3.3-3-4.9L73.3 59.7c.5 1.6.9 3.2 1 4.8h31.5c.1-.2.1-.3.1-.5z"/><path fill="#6ba43a" d="M74.5 66.6c0 .4 0 .7-.1 1.1 0 .4 0 .7-.1 1.1-.4 4.1-2 8.1-4.7 11.5-.2.3-.5.5-.7.8s-.5.5-.7.8l22.3 22.3c.3-.3.5-.5.7-.8.2-.3.5-.5.7-.8 1.6-1.8 3.2-3.7 4.5-5.6.1-.1.1-.2.2-.2.2-.2.3-.5.5-.7.1-.2.3-.4.4-.6.1-.1.1-.2.2-.3 5.1-8 7.8-17.1 8.2-26.3v-2.2l-31.4-.1z"/><path fill="#424143" d="M115.3 4.3c-5.8-5.8-15.1-5.8-20.9 0-4.6 4.6-5.5 11.5-2.8 17L59.5 53.4c-5.5-2.7-12.4-1.8-17 2.8-5.8 5.8-5.8 15.1 0 20.9 5.8 5.8 15.1 5.8 20.9 0 4.6-4.6 5.5-11.5 2.8-17L98.3 28c5.5 2.7 12.4 1.8 17-2.8 5.7-5.8 5.7-15.1 0-20.9z"/></svg>