<svg xmlns="http://www.w3.org/2000/svg" data-name="Layer 1" viewBox="0 0 156.63 169.31">
  <defs>
    <linearGradient id="portalA" x1="381.43" x2="1.46" y1="85" y2="85" gradientUnits="userSpaceOnUse">
      <stop offset="0" stop-color="#729bd2"/>
      <stop offset="1" stop-color="#985da2"/>
    </linearGradient>
  </defs>
  <path fill="url(#portalA)" d="M100.77 38.43l1.46.26 31-1.67-44.8-8.14a26.76 26.76 0 00-18.5 3.38L52.4 42.78a.87.87 0 01-1.13-1.3l6.44-19.71-23.5 29.86 8.93 5 29.67-17.79a11.15 11.15 0 0111.5 0l29.86 17.92 7.22-4-21.24-12.71a.88.88 0 01.62-1.62zm0 0l1.46.26 31-1.67-44.8-8.14a26.76 26.76 0 00-18.5 3.38L52.4 42.78a.87.87 0 01-1.13-1.3l6.44-19.71-23.5 29.86 8.93 5 29.67-17.79a11.15 11.15 0 0111.5 0l29.86 17.92 7.22-4-21.24-12.71a.88.88 0 01.62-1.62zm0 0l1.46.26 31-1.67-44.8-8.14a26.76 26.76 0 00-18.5 3.38L52.4 42.78a.87.87 0 01-1.13-1.3l6.44-19.71-23.5 29.86 8.93 5 29.67-17.79a11.15 11.15 0 0111.5 0l29.86 17.92 7.22-4-21.24-12.71a.88.88 0 01.62-1.62zm0 0l1.46.26 31-1.67-44.8-8.14a26.76 26.76 0 00-18.5 3.38L52.4 42.78a.87.87 0 01-1.13-1.3l6.44-19.71-23.5 29.86 8.93 5 29.67-17.79a11.15 11.15 0 0111.5 0l29.86 17.92 7.22-4-21.24-12.71a.88.88 0 01.62-1.62zm0 0l1.46.26 31-1.67-44.8-8.14a26.76 26.76 0 00-18.5 3.38L52.4 42.78a.87.87 0 01-1.13-1.3l6.44-19.71-23.5 29.86 8.93 5 29.67-17.79a11.15 11.15 0 0111.5 0l29.86 17.92 7.22-4-21.24-12.71a.88.88 0 01.62-1.62zm0 0l1.46.26 31-1.67-44.8-8.14a26.76 26.76 0 00-18.5 3.38L52.4 42.78a.87.87 0 01-1.13-1.3l6.44-19.71-23.5 29.86 8.93 5 29.67-17.79a11.15 11.15 0 0111.5 0l29.86 17.92 7.22-4-21.24-12.71a.88.88 0 01.62-1.62zm0 0l1.46.26 31-1.67-44.8-8.14a26.76 26.76 0 00-18.5 3.38L52.4 42.78a.87.87 0 01-1.13-1.3l6.44-19.71-23.5 29.86 8.93 5 29.67-17.79a11.15 11.15 0 0111.5 0l29.86 17.92 7.22-4-21.24-12.71a.88.88 0 01.62-1.62zm0 0l1.46.26 31-1.67-44.8-8.14a26.76 26.76 0 00-18.5 3.38L52.4 42.78a.87.87 0 01-1.13-1.3l6.44-19.71-23.5 29.86 8.93 5 29.67-17.79a11.15 11.15 0 0111.5 0l29.86 17.92 7.22-4-21.24-12.71a.88.88 0 01.62-1.62zm0 0l1.46.26 31-1.67-44.8-8.14a26.76 26.76 0 00-18.5 3.38L52.4 42.78a.87.87 0 01-1.13-1.3l6.44-19.71-23.5 29.86 8.93 5 29.67-17.79a11.15 11.15 0 0111.5 0l29.86 17.92 7.22-4-21.24-12.71a.88.88 0 01.62-1.62zm0 0l1.46.26 31-1.67-44.8-8.14a26.76 26.76 0 00-18.5 3.38L52.4 42.78a.87.87 0 01-1.13-1.3l6.44-19.71-23.5 29.86 8.93 5 29.67-17.79a11.15 11.15 0 0111.5 0l29.86 17.92 7.22-4-21.24-12.71a.88.88 0 01.62-1.62zm0 0l1.46.26 31-1.67-44.8-8.14a26.76 26.76 0 00-18.5 3.38L52.4 42.78a.87.87 0 01-1.13-1.3l6.44-19.71-23.5 29.86 8.93 5 29.67-17.79a11.15 11.15 0 0111.5 0l29.86 17.92 7.22-4-21.24-12.71a.88.88 0 01.62-1.62zm0 0l1.46.26 31-1.67-44.8-8.14a26.76 26.76 0 00-18.5 3.38L52.4 42.78a.87.87 0 01-1.13-1.3l6.44-19.71-23.5 29.86 8.93 5 29.67-17.79a11.15 11.15 0 0111.5 0l29.86 17.92 7.22-4-21.24-12.71a.88.88 0 01.62-1.62zm48.52-.28L89.46 3.31a21.82 21.82 0 00-21.94 0L9.94 36.78a19.66 19.66 0 00-9.76 17v63.37a19.86 19.86 0 0010.25 17.35l56.63 32.13a23.15 23.15 0 0022.86 0l55.64-31.86a22.2 22.2 0 0011.15-19.25l.1-64.27a15.14 15.14 0 00-7.52-13.1zM74.88 157.39a3.2 3.2 0 01-4.79 2.79l-46.26-26.26s-11.74-5-14.88-15.64a11.54 11.54 0 01-1.64-6V66.77s-.66-11.47.75-15.09l5.86 3a.76.76 0 01.35.09l3.5 1.89.33.18 7.32 3.95a4 4 0 012.1 3.5v27.2a.64.64 0 01-1.24.22L11.91 72.84l12.57 34.94a24.61 24.61 0 0010.84 13L51.2 130a.67.67 0 01-.48 1.24l-22.67 2.26 42.76 9.5v-9.85l-30.6-17.75a11.19 11.19 0 01-5.57-9.66V68.56a1.65 1.65 0 012.43-1.45l15.36 8.32a42.77 42.77 0 0122.45 37.66zM60.31 71.58L12.79 45.9a1.45 1.45 0 01-.06-2.53l46.83-27.21s15-11.87 22.75-8.53A4.9 4.9 0 0183 8c12.52 7.18 50.22 29 50.22 29s11.2 5.19 8 10a1.17 1.17 0 01-.58.72l-1.45.79-42.57 23a38.18 38.18 0 01-36.31.07zM144 126.47a26.87 26.87 0 01-6 4.66 1.22 1.22 0 01-.19.12l-39.87 22.61h-.06c-1 .58-11.29 6.19-15.09 3.42a1.52 1.52 0 01-.39-.41 1.25 1.25 0 01-.4-.87v-42.91a42.83 42.83 0 0122.46-37.66L120 67a1.64 1.64 0 012.42 1.45v37.26a11.18 11.18 0 01-5.56 9.66L86 133.29v8.24l19.48-11.31a.88.88 0 011.11 1.34l-7.5 19.29 24.29-27.62a24.63 24.63 0 006.19-16.23V81.69a.64.64 0 011.23-.25l14.65 17-13.81-33.6a4 4 0 011.8-5l12-6.49a2.82 2.82 0 014.16 2.48v47.4s.4 18.58-5.6 23.24zM69.93 32.26L52.4 42.78a.87.87 0 01-1.13-1.3l6.44-19.71-23.5 29.86 8.93 5 29.67-17.79a11.15 11.15 0 0111.5 0l29.86 17.92 7.22-4-21.24-12.71a.88.88 0 01.62-1.62l1.46.26 31-1.67-44.8-8.14a26.76 26.76 0 00-18.5 3.38zm30.84 6.17l1.46.26 31-1.67-44.8-8.14a26.76 26.76 0 00-18.5 3.38L52.4 42.78a.87.87 0 01-1.13-1.3l6.44-19.71-23.5 29.86 8.93 5 29.67-17.79a11.15 11.15 0 0111.5 0l29.86 17.92 7.22-4-21.24-12.71a.88.88 0 01.62-1.62zm0 0l1.46.26 31-1.67-44.8-8.14a26.76 26.76 0 00-18.5 3.38L52.4 42.78a.87.87 0 01-1.13-1.3l6.44-19.71-23.5 29.86 8.93 5 29.67-17.79a11.15 11.15 0 0111.5 0l29.86 17.92 7.22-4-21.24-12.71a.88.88 0 01.62-1.62zm0 0l1.46.26 31-1.67-44.8-8.14a26.76 26.76 0 00-18.5 3.38L52.4 42.78a.87.87 0 01-1.13-1.3l6.44-19.71-23.5 29.86 8.93 5 29.67-17.79a11.15 11.15 0 0111.5 0l29.86 17.92 7.22-4-21.24-12.71a.88.88 0 01.62-1.62zm0 0l1.46.26 31-1.67-44.8-8.14a26.76 26.76 0 00-18.5 3.38L52.4 42.78a.87.87 0 01-1.13-1.3l6.44-19.71-23.5 29.86 8.93 5 29.67-17.79a11.15 11.15 0 0111.5 0l29.86 17.92 7.22-4-21.24-12.71a.88.88 0 01.62-1.62zm0 0l1.46.26 31-1.67-44.8-8.14a26.76 26.76 0 00-18.5 3.38L52.4 42.78a.87.87 0 01-1.13-1.3l6.44-19.71-23.5 29.86 8.93 5 29.67-17.79a11.15 11.15 0 0111.5 0l29.86 17.92 7.22-4-21.24-12.71a.88.88 0 01.62-1.62zm0 0l1.46.26 31-1.67-44.8-8.14a26.76 26.76 0 00-18.5 3.38L52.4 42.78a.87.87 0 01-1.13-1.3l6.44-19.71-23.5 29.86 8.93 5 29.67-17.79a11.15 11.15 0 0111.5 0l29.86 17.92 7.22-4-21.24-12.71a.88.88 0 01.62-1.62zm0 0l1.46.26 31-1.67-44.8-8.14a26.76 26.76 0 00-18.5 3.38L52.4 42.78a.87.87 0 01-1.13-1.3l6.44-19.71-23.5 29.86 8.93 5 29.67-17.79a11.15 11.15 0 0111.5 0l29.86 17.92 7.22-4-21.24-12.71a.88.88 0 01.62-1.62zm0 0l1.46.26 31-1.67-44.8-8.14a26.76 26.76 0 00-18.5 3.38L52.4 42.78a.87.87 0 01-1.13-1.3l6.44-19.71-23.5 29.86 8.93 5 29.67-17.79a11.15 11.15 0 0111.5 0l29.86 17.92 7.22-4-21.24-12.71a.88.88 0 01.62-1.62zm0 0l1.46.26 31-1.67-44.8-8.14a26.76 26.76 0 00-18.5 3.38L52.4 42.78a.87.87 0 01-1.13-1.3l6.44-19.71-23.5 29.86 8.93 5 29.67-17.79a11.15 11.15 0 0111.5 0l29.86 17.92 7.22-4-21.24-12.71a.88.88 0 01.62-1.62zm0 0l1.46.26 31-1.67-44.8-8.14a26.76 26.76 0 00-18.5 3.38L52.4 42.78a.87.87 0 01-1.13-1.3l6.44-19.71-23.5 29.86 8.93 5 29.67-17.79a11.15 11.15 0 0111.5 0l29.86 17.92 7.22-4-21.24-12.71a.88.88 0 01.62-1.62zm0 0l1.46.26 31-1.67-44.8-8.14a26.76 26.76 0 00-18.5 3.38L52.4 42.78a.87.87 0 01-1.13-1.3l6.44-19.71-23.5 29.86 8.93 5 29.67-17.79a11.15 11.15 0 0111.5 0l29.86 17.92 7.22-4-21.24-12.71a.88.88 0 01.62-1.62z" transform="translate(-.18 -.35)"/>
</svg>
