<svg xmlns="http://www.w3.org/2000/svg" stroke-width="0" shape-rendering="geometricPrecision" viewBox="0 0 1200 1200"><path fill="#468bcc" d="M100 615L25 360 260 25l455 590z"/><path fill="#4ba8ff" d="M25 360L260 25l340 105 115 485z"/><path fill="#468bcc" d="M260 25l340 105L940 25 715 615z"/><path fill="#468bcc" d="M600 130L940 25l235 335-460 255z"/><path fill="#4ba8ff" d="M940 25l235 335-75 255H715z"/><path fill="#468bcc" d="M1175 360l-75 255-500 440 115-440z"/><path fill="#468bcc" d="M1100 615l-500 440-500-440h615z"/><path fill="#468bcc" d="M600 1055L100 615 25 360l690 255z"/><path fill="#468bcc" d="M100 615L25 360l690 255z"/><g><path fill="#fff" stroke="#082744" stroke-linejoin="round" stroke-width="8" d="M375 740l85 55-135 105zM825 740l-85 55 135 105z"/><path fill="#4ba8ff" d="M325 300L490 96h220L600 450z"/><path fill="#468bcc" d="M490 96h220l165 204-275 150z"/><path fill="#166ebf" d="M710 96l165 204v425L600 450z"/><path fill="#0b457f" d="M875 300v425L710 835 600 450z"/><path fill="#0c3861" d="M875 725L710 835l-110 295V450z"/><path fill="#166ebf" d="M710 835v240l-110 55-110-295 110-385z"/><path fill="#4ba8ff" d="M600 1130l-110-55V835L325 725l275-275z"/><path fill="#166ebf" d="M490 835L325 725V300l275 150z"/><path fill="#468bcc" d="M325 725V300l275 150z"/><path fill="none" stroke="#082744" stroke-linejoin="round" stroke-width="8" d="M490 96h220l165 204v425L710 835v240l-110 55-110-55V835L325 725V300z"/><path fill="#fff" d="M385 415l130 40-130 50zM815 415l-130 40 130 50z"/></g></svg>
