<svg xmlns="http://www.w3.org/2000/svg" viewBox="0 0 32 32"><rect width="21" height="21" x="-33.9" y="-9.8" opacity=".2" rx="2.1" ry="2.1" transform="scale(-1 1) rotate(-45)"/><rect width="21" height="21" x="-33.1" y="-10.5" fill="#66b744" rx="2.1" ry="2.1" transform="scale(-1 1) rotate(-45)"/><path fill-rule="evenodd" d="M16 6c-1.7 0-3.2.2-4.5.6l-4 4c-.2 1-.3 2-.2 2.6.4 3.5 4 5.8 8.7 5.8 3.3 0 5 1.7 5 2.2.1.3.1 1.5-.5 1.9-.6.4-2.3.9-4.5.9-2.7 0-6-1.7-6-1.7a2 2 0 00-2.8.8l4.1 4a15 15 0 009.2.3l4-4c.2-1 .3-2 .2-2.6-.4-3.5-4-5.8-8.7-5.8-3.3 0-4.9-1.7-5-2.2 0-.3 0-1.5.6-1.9.6-.4 2.2-.9 4.4-.9 2.7 0 6 1.7 6 1.7a2 2 0 002.8-.8l-4.1-4A15 15 0 0016 6z" opacity=".2"/><path fill="#fff" fill-rule="evenodd" d="M16 5c-1.7 0-3.2.2-4.5.6l-4 4c-.2 1-.3 2-.2 2.6.4 3.5 4 5.8 8.7 5.8 3.3 0 5 1.7 5 2.2.1.3.1 1.5-.5 1.9-.6.4-2.3.9-4.5.9-2.7 0-6-1.7-6-1.7a2 2 0 00-2.8.8l4.1 4a15 15 0 009.2.3l4-4c.2-1 .3-2 .2-2.6-.4-3.5-4-5.8-8.7-5.8-3.3 0-4.9-1.7-5-2.2 0-.3 0-1.5.6-1.9.6-.4 2.2-.9 4.4-.9 2.7 0 6 1.7 6 1.7a2 2 0 002.8-.8l-4.1-4A15 15 0 0016 5z"/><path fill="#fff" d="M16 2a2 2 0 00-1.5.6l-11.9 12a2 2 0 00-.5 1.9c0-.4.2-.7.5-1l12-11.9c.7-.8 2-.8 2.9 0l11.9 12c.3.2.4.5.5.9a2 2 0 00-.5-2l-12-11.9A2 2 0 0016 2z" opacity=".2"/></svg>
