<svg xmlns="http://www.w3.org/2000/svg" xmlns:xlink="http://www.w3.org/1999/xlink" viewBox="0 0 80 52">
  <defs>
    <linearGradient xlink:href="#wa" id="wb" x1="-108.9" y1="2124.8" x2="-1137.2" y2="2110.7" gradientUnits="userSpaceOnUse" gradientTransform="matrix(.0774 0 0 .0774 88.4 -128)"/>
    <linearGradient id="wa">
      <stop offset="0" stop-color="#3e82f4"/>
      <stop offset="1" stop-color="#93dcf7"/>
    </linearGradient>
  </defs>
  <path d="M45.9.8a21.5 21.5 0 00-18.8 11 11.8 11.8 0 00-5.1-1.2 11.8 11.8 0 00-11.6 9.9 16.3 16.3 0 00-10 15 16.3 16.3 0 0016.2 16.2 16.3 16.3 0 002-.1H64a15.1 15.2 0 00.7 0 15.1 15.2 0 00.7 0h1v-.1a15.1 15.2 0 0013.4-15v-.1a15.1 15.2 0 00-12.3-15A21.5 21.5 0 0045.9.9z" fill="url(#wb)"/>
</svg>
